<svg width="98" height="98" viewBox="0 0 98 98" fill="none" xmlns="http://www.w3.org/2000/svg">
<g clip-path="url(#clip0_806_1125)">
<rect width="98" height="98" rx="49" fill="#F7F7F7"/>
<path d="M49 0C36.0093 0 23.5376 5.16606 14.3516 14.3516C5.16606 23.5376 0 36.0093 0 49C0 61.9907 5.16606 74.4624 14.3516 83.6484C23.5376 92.8339 36.0093 98 49 98C61.9907 98 74.4624 92.8339 83.6484 83.6484C92.8339 74.4624 98 61.9907 98 49C98 36.0093 92.8339 23.5376 83.6484 14.3516C74.4624 5.16606 61.9907 0 49 0ZM49 14.7C52.897 14.7 56.6386 16.2496 59.3945 19.0055C62.1504 21.7614 63.7 25.503 63.7 29.4C63.7 33.297 62.1504 37.0386 59.3945 39.7945C56.6386 42.5504 52.897 44.1 49 44.1C45.103 44.1 41.3614 42.5504 38.6055 39.7945C35.8496 37.0386 34.3 33.297 34.3 29.4C34.2966 26.8187 34.9741 24.2818 36.2638 22.0458C37.5531 19.8102 39.4102 17.9531 41.6458 16.6638C43.8818 15.3741 46.4187 14.6966 49 14.7ZM49 84.28C43.1782 84.2804 37.446 82.8391 32.3163 80.0859C27.187 77.3327 22.8175 73.3522 19.6 68.5005C19.7455 58.7502 39.2 53.41 49 53.41C58.8 53.41 78.2545 58.7502 78.4 68.5005C75.1825 73.3522 70.813 77.3327 65.6837 80.0859C60.554 82.8391 54.8218 84.2804 49 84.28Z" fill="#535353"/>
</g>
<rect x="1" y="1" width="96" height="96" rx="48" stroke="#F7F7F7" stroke-width="2"/>
<defs>
<clipPath id="clip0_806_1125">
<rect width="98" height="98" rx="49" fill="white"/>
</clipPath>
</defs>
</svg>
